<svg width="67" height="67" viewBox="0 0 67 67" fill="none" xmlns="http://www.w3.org/2000/svg">
<path d="M67 33.7052C67 15.0899 52.0022 0 33.5042 0C14.9977 0.00418698 0 15.0899 0 33.7094C0 50.5284 12.2511 64.4711 28.2621 67L28.2621 43.4483L19.7625 43.4483V33.7094L28.2705 33.7094L28.2705 26.2775C28.2705 17.8323 33.2739 13.168 40.9235 13.168C44.5913 13.168 48.4224 13.8254 48.4224 13.8254L48.4224 22.1156H44.1977C40.0401 22.1156 38.7421 24.7157 38.7421 27.3828V33.7052H48.0288L46.5466 43.4441H38.7379L38.7379 66.9958C54.7489 64.4669 67 50.5243 67 33.7052Z" fill="#D9D9D9"/>
</svg>
