<svg width="40" height="42" viewBox="0 0 40 42" fill="none" xmlns="http://www.w3.org/2000/svg">
<path d="M17.48 0.938169C18.1926 0.331238 19.0824 0 20 0C20.9176 0 21.8074 0.331238 22.52 0.938169L37.776 13.9143C38.4697 14.5041 39.0293 15.249 39.4141 16.0946C39.7988 16.9402 39.999 17.8653 40 18.8025V37.8006C40 38.9143 39.5786 39.9825 38.8284 40.77C38.0783 41.5576 37.0609 42 36 42H30C28.9391 42 27.9217 41.5576 27.1716 40.77C26.4214 39.9825 26 38.9143 26 37.8006V27.3021C26 26.7452 25.7893 26.2111 25.4142 25.8173C25.0391 25.4236 24.5304 25.2024 24 25.2024H16C15.4696 25.2024 14.9609 25.4236 14.5858 25.8173C14.2107 26.2111 14 26.7452 14 27.3021V37.8006C14 38.9143 13.5786 39.9825 12.8284 40.77C12.0783 41.5576 11.0609 42 10 42H4C2.93913 42 1.92172 41.5576 1.17157 40.77C0.421427 39.9825 1.17436e-07 38.9143 1.17436e-07 37.8006V18.8067C-0.000176747 17.8681 0.199424 16.9414 0.584211 16.0942C0.968999 15.247 1.52925 14.5008 2.224 13.9101L17.48 0.938169Z" fill="white"/>
</svg>
