<svg width="67" height="67" viewBox="0 0 67 67" fill="none" xmlns="http://www.w3.org/2000/svg">
<path d="M36.9438 0C40.7124 0.0100498 42.6251 0.0301493 44.2766 0.0770482L44.9265 0.100498C45.6768 0.127297 46.4172 0.160796 47.3116 0.200995C50.8758 0.368491 53.3078 0.931279 55.4416 1.75871C57.6525 2.60959 59.515 3.76196 61.3775 5.62117C63.0809 7.29578 64.3989 9.32146 65.2398 11.5572C66.0673 13.6911 66.63 16.1232 66.7975 19.6908C66.8377 20.5819 66.8712 21.3223 66.898 22.076L66.9181 22.7259C66.9684 24.374 66.9885 26.2868 66.9952 30.0555L66.9985 32.5545V36.9429C67.0067 39.3864 66.981 41.8298 66.9215 44.2726L66.9014 44.9225C66.8746 45.6762 66.8411 46.4165 66.8009 47.3076C66.6334 50.8753 66.0639 53.304 65.2398 55.4412C64.4013 57.6782 63.083 59.7044 61.3775 61.3773C59.7024 63.0801 57.677 64.3981 55.4416 65.2397C53.3078 66.0672 50.8758 66.6299 47.3116 66.7974C46.5167 66.8349 45.7217 66.8684 44.9265 66.8979L44.2766 66.918C42.6251 66.9649 40.7124 66.9884 36.9438 66.9951L34.4449 66.9984H30.0599C27.6154 67.0069 25.171 66.9812 22.7272 66.9214L22.0773 66.9013C21.2821 66.8712 20.487 66.8365 19.6922 66.7974C16.128 66.6299 13.696 66.0672 11.5588 65.2397C9.3234 64.4001 7.29859 63.0819 5.62629 61.3773C3.92138 59.7033 2.60215 57.6775 1.76059 55.4412C0.933185 53.3073 0.370414 50.8753 0.202922 47.3076C0.165601 46.5127 0.132103 45.7177 0.102428 44.9225L0.0856789 44.2726C0.0239484 41.8299 -0.00396983 39.3864 0.00193285 36.9429L0.00193285 30.0555C-0.0074164 27.6121 0.0171516 25.1686 0.0756293 22.7259L0.099078 22.076C0.125877 21.3223 0.159375 20.5819 0.199573 19.6908C0.367064 16.1232 0.929835 13.6945 1.75724 11.5572C2.59843 9.31916 3.9203 7.29286 5.62964 5.62117C7.30152 3.91765 9.32499 2.5995 11.5588 1.75871C13.696 0.931279 16.1247 0.368491 19.6922 0.200995C20.5833 0.160796 21.3269 0.127297 22.0773 0.100498L22.7272 0.0803979C25.1698 0.0208791 27.6132 -0.00480612 30.0566 0.00334968L36.9438 0ZM33.5002 16.7496C29.0581 16.7496 24.7979 18.5143 21.6568 21.6555C18.5157 24.7966 16.7511 29.0569 16.7511 33.4992C16.7511 37.9415 18.5157 42.2018 21.6568 45.343C24.7979 48.4841 29.0581 50.2488 33.5002 50.2488C37.9424 50.2488 42.2026 48.4841 45.3437 45.343C48.4847 42.2018 50.2494 37.9415 50.2494 33.4992C50.2494 29.0569 48.4847 24.7966 45.3437 21.6555C42.2026 18.5143 37.9424 16.7496 33.5002 16.7496ZM33.5002 23.4495C34.8199 23.4492 36.1268 23.709 37.3461 24.2138C38.5655 24.7186 39.6734 25.4587 40.6068 26.3918C41.5401 27.3248 42.2805 28.4326 42.7858 29.6518C43.291 30.871 43.5512 32.1778 43.5514 33.4975C43.5516 34.8173 43.2919 36.1242 42.787 37.3435C42.2822 38.5629 41.5422 39.6709 40.6091 40.6043C39.6761 41.5377 38.5684 42.2781 37.3492 42.7833C36.13 43.2886 34.8233 43.5488 33.5036 43.549C30.8383 43.549 28.2822 42.4902 26.3975 40.6055C24.5129 38.7208 23.4541 36.1646 23.4541 33.4992C23.4541 30.8339 24.5129 28.2777 26.3975 26.393C28.2822 24.5083 30.8383 23.4495 33.5036 23.4495M51.0902 11.7247C49.9796 11.7247 48.9146 12.1659 48.1293 12.9512C47.344 13.7365 46.9029 14.8016 46.9029 15.9121C46.9029 17.0227 47.344 18.0878 48.1293 18.8731C48.9146 19.6584 49.9796 20.0995 51.0902 20.0995C52.2007 20.0995 53.2658 19.6584 54.051 18.8731C54.8363 18.0878 55.2775 17.0227 55.2775 15.9121C55.2775 14.8016 54.8363 13.7365 54.051 12.9512C53.2658 12.1659 52.2007 11.7247 51.0902 11.7247Z" fill="#D9D9D9"/>
</svg>
