<svg width="30" height="29" viewBox="0 0 30 29" fill="none" xmlns="http://www.w3.org/2000/svg">
<path d="M16.542 0C18.2294 0.0043499 19.0859 0.0130497 19.8253 0.0333492L20.1163 0.0434989C20.4523 0.0550987 20.7838 0.0695983 21.1843 0.0869979C22.7802 0.159496 23.8691 0.403091 24.8246 0.761232C25.8145 1.12952 26.6485 1.62831 27.4825 2.43304C28.2452 3.15788 28.8353 4.03466 29.2119 5.00238C29.5824 5.92601 29.8343 6.97869 29.9093 8.5229C29.9273 8.90859 29.9423 9.22903 29.9543 9.55528L29.9633 9.83657C29.9858 10.55 29.9948 11.3779 29.9978 13.0091L29.9993 14.0908V15.9902C30.003 17.0478 29.9915 18.1054 29.9648 19.1628L29.9558 19.444C29.9438 19.7703 29.9288 20.0907 29.9108 20.4764C29.8358 22.0206 29.5809 23.0719 29.2119 23.9969C28.8364 24.9652 28.2461 25.8422 27.4825 26.5663C26.7324 27.3033 25.8255 27.8738 24.8246 28.2381C23.8691 28.5962 22.7802 28.8398 21.1843 28.9123C20.8284 28.9285 20.4724 28.943 20.1163 28.9558L19.8253 28.9645C19.0859 28.9848 18.2294 28.995 16.542 28.9979L15.4231 28.9993H13.4597C12.3651 29.003 11.2706 28.9919 10.1763 28.966L9.88536 28.9573C9.52929 28.9442 9.17331 28.9293 8.81741 28.9123C7.2215 28.8398 6.13255 28.5962 5.1756 28.2381C4.17466 27.8747 3.26802 27.3041 2.51924 26.5663C1.75584 25.8417 1.16514 24.9649 0.788325 23.9969C0.417844 23.0733 0.165857 22.0206 0.0908608 20.4764C0.0741498 20.1324 0.0591505 19.7882 0.0458631 19.444L0.0383637 19.1628C0.0107232 18.1055 -0.00177754 17.0479 0.000865457 15.9902V13.0091C-0.00332078 11.9515 0.00767983 10.8939 0.0338639 9.83657L0.0443633 9.55528C0.0563627 9.22903 0.0713619 8.90859 0.0893609 8.5229C0.164357 6.97869 0.416344 5.92746 0.786825 5.00238C1.16348 4.03367 1.75536 3.15661 2.52074 2.43304C3.26934 1.6957 4.17537 1.12515 5.1756 0.761232C6.13255 0.403091 7.22 0.159496 8.81741 0.0869979C9.21639 0.0695983 9.54938 0.0550987 9.88536 0.0434989L10.1763 0.0347991C11.2701 0.00903721 12.3641 -0.00208026 13.4582 0.00144986L16.542 0ZM15.0001 7.24983C13.0111 7.24983 11.1035 8.01365 9.69707 9.37326C8.29062 10.7329 7.50048 12.5769 7.50048 14.4997C7.50048 16.4224 8.29062 18.2665 9.69707 19.6261C11.1035 20.9857 13.0111 21.7495 15.0001 21.7495C16.9891 21.7495 18.8967 20.9857 20.3031 19.6261C21.7096 18.2665 22.4997 16.4224 22.4997 14.4997C22.4997 12.5769 21.7096 10.7329 20.3031 9.37326C18.8967 8.01365 16.9891 7.24983 15.0001 7.24983ZM15.0001 10.1498C15.591 10.1497 16.1762 10.2621 16.7221 10.4806C17.2681 10.6991 17.7642 11.0194 18.1821 11.4233C18.6 11.8272 18.9316 12.3066 19.1578 12.8344C19.384 13.3621 19.5005 13.9277 19.5006 14.4989C19.5007 15.0702 19.3844 15.6358 19.1584 16.1636C18.9323 16.6914 18.601 17.171 18.1832 17.575C17.7654 17.979 17.2694 18.2995 16.7235 18.5182C16.1776 18.7369 15.5925 18.8495 15.0016 18.8496C13.8082 18.8496 12.6637 18.3913 11.8198 17.5755C10.9759 16.7597 10.5018 15.6533 10.5018 14.4997C10.5018 13.346 10.9759 12.2396 11.8198 11.4238C12.6637 10.6081 13.8082 10.1498 15.0016 10.1498M22.8762 5.07488C22.3789 5.07488 21.9021 5.26584 21.5504 5.60574C21.1988 5.94564 21.0013 6.40665 21.0013 6.88734C21.0013 7.36803 21.1988 7.82904 21.5504 8.16894C21.9021 8.50884 22.3789 8.6998 22.8762 8.6998C23.3734 8.6998 23.8503 8.50884 24.202 8.16894C24.5536 7.82904 24.7511 7.36803 24.7511 6.88734C24.7511 6.40665 24.5536 5.94564 24.202 5.60574C23.8503 5.26584 23.3734 5.07488 22.8762 5.07488Z" fill="white"/>
</svg>
