<svg width="473" height="555" viewBox="0 0 473 555" fill="none" xmlns="http://www.w3.org/2000/svg">
<path d="M223.528 511.279C345.672 511.279 444.689 412.261 444.689 290.117C444.689 167.973 345.672 68.9555 223.528 68.9555C101.384 68.9555 2.36621 167.973 2.36621 290.117C2.36621 412.261 101.384 511.279 223.528 511.279Z" fill="#FE9B33"/>
<path d="M290.837 311.216C243.853 269.629 247.745 263.359 240.123 238.76C253.513 238.869 262.847 233.592 262.847 233.592C250.809 224.672 249.97 211.686 250.7 204.261C253.099 199.517 254.44 194.153 254.44 188.483C254.44 182.813 253.11 177.492 250.711 172.781H250.722C258.834 163.797 258.54 130.976 254.44 134.487C251.18 137.29 238.662 151.116 233.865 156.567C229.492 154.572 224.629 153.449 219.504 153.438C214.576 143.014 206.627 127.825 202.887 127.269C202.887 127.269 185.899 143.963 182.181 168.671C182.148 168.921 182.126 169.161 182.104 169.401C174.243 178.222 148.325 209.854 145.708 245.455C142.644 287.5 146.591 299.069 157.429 317.376C168.268 335.673 195.069 368.341 192.583 385.918C190.086 403.495 187.24 378.819 183.206 366.487C178.681 352.672 159.937 323.559 150.276 316.537C150.276 316.537 153.896 345.879 144.65 364.11C120.116 412.512 138.402 440.916 170.198 447.884C213.813 457.436 305.404 458.57 318.456 405.588C327.823 367.567 315.948 333.481 290.804 311.216H290.837ZM172.313 384.413L167.962 392.776L162.39 384.958L156.819 393.136L150.603 385.034C150.603 385.034 142.098 393.768 141.564 393.67C141.03 393.572 141.619 387.619 143.254 382.374C151.018 357.47 157.527 357.59 155.401 331.65C155.368 331.301 168.377 347.144 175.3 363.761C182.235 380.379 183.238 393.136 183.238 393.136L172.313 384.424V384.413ZM201.917 188.755C210.999 187.392 220.311 192.408 222.732 199.975C222.885 200.455 222.547 200.902 221.969 200.989C212.886 202.352 203.574 197.337 201.153 189.769C201.001 189.29 201.339 188.843 201.917 188.755ZM232.524 255.737C231.793 267.819 227.541 283.248 224.368 295.024C221.205 306.8 214.587 328.313 218.905 337.614C218.905 337.614 210.77 336.502 209.756 332.653C208.742 328.804 209.996 357.535 212.799 360.501C215.601 363.467 168.137 326.099 159.784 272.486L164.32 272.976C164.32 272.976 164.299 221.881 181.047 210.149C181.625 209.745 189.007 225.021 203.291 231.356C217.574 237.692 228.347 239.393 228.347 239.393C228.347 239.393 233.243 243.667 232.524 255.748V255.737Z" fill="#20201E"/>
<path d="M41.7179 67.5053L36.8875 72.2811L56.7433 92.3986C62.4896 98.2212 65.4227 103.411 65.5209 107.958C65.5972 112.538 62.9912 117.434 57.7246 122.635C52.3818 127.901 47.4097 130.42 42.7974 130.18C38.1523 130.049 33.0058 127.116 27.3576 121.403L7.50181 101.274L2.67143 106.05L0 103.346L14.8182 88.724L17.4897 91.4282L12.6484 96.204L31.9917 115.809C36.7785 120.661 40.9001 123.278 44.3348 123.638C47.8131 123.976 51.4877 122.22 55.3694 118.393C59.2512 114.566 61.0503 110.902 60.7668 107.424C60.4506 103.978 57.8882 99.8241 53.1014 94.9719L33.7581 75.3669L28.9168 80.1428L26.2454 77.4386L39.0356 64.812L41.707 67.5162L41.7179 67.5053Z" fill="#D9D9D9"/>
<path d="M127.247 72.1939L116.441 78.6053L100.631 68.2795C97.556 66.2514 95.2226 65.1719 93.6197 65.0519C91.9514 64.9102 90.1305 65.4227 88.1678 66.5894L81.3202 70.6565L92.0278 88.6804L98.4937 84.8423L100.435 88.1134L81.8981 99.1154L79.9573 95.8442L85.8017 92.3768L62.4894 53.1123L56.645 56.5797L54.7041 53.3086L77.951 39.5044C82.3452 36.8984 86.4123 35.9279 90.1523 36.5931C93.8487 37.2909 96.8581 39.5807 99.1697 43.4733C101.034 46.6136 101.601 49.6231 100.871 52.4908C100.184 55.3367 98.232 58.019 95.0372 60.5487C96.7273 60.058 98.3629 59.9926 99.933 60.3633C101.623 60.7231 103.313 61.4755 105.014 62.6204L119.734 72.2375L125.328 68.9228L127.269 72.1939H127.247ZM93.9577 55.7619C94.5574 53.4285 93.9468 50.7353 92.1259 47.6713C90.3159 44.6182 88.2332 42.7864 85.8998 42.1867C83.5664 41.5979 80.8405 42.2085 77.7438 44.0512L68.6937 49.4159L79.3576 67.3853L88.4077 62.0098C91.5044 60.167 93.358 58.0844 93.9468 55.7401L93.9577 55.7619Z" fill="#D9D9D9"/>
<path d="M167.493 43.8223C169.085 48.838 168.681 53.0251 166.272 56.3943C163.884 59.8072 159.293 62.5986 152.522 64.7466L129.057 72.1939L127.912 68.5739L134.389 66.5131L120.574 22.996L114.097 25.0569L112.952 21.4368L138.02 13.477C143.167 11.8415 147.354 11.667 150.57 12.9428C153.83 14.2076 156.131 16.9226 157.45 21.1097C158.41 24.13 158.268 26.8015 157.014 29.1458C155.869 31.501 153.601 33.4528 150.21 34.9902C154.703 34.1724 158.421 34.5322 161.354 36.0479C164.276 37.5199 166.326 40.115 167.504 43.8332L167.493 43.8223ZM149.643 23.5848C148.651 20.4773 147.081 18.4928 144.922 17.6532C142.752 16.7591 139.808 16.9008 136.09 18.0784L127.454 20.8153L133.113 38.643L141.749 35.9061C145.467 34.7285 147.953 33.1475 149.207 31.163C150.483 29.2221 150.625 26.7033 149.643 23.5958V23.5848ZM159.697 46.2974C158.497 42.5356 156.687 40.0278 154.234 38.752C151.693 37.6725 148.422 37.7598 144.431 39.0246L134.269 42.2521L141.28 64.3214L151.443 61.0939C155.433 59.829 158.148 57.9972 159.588 55.5984C160.885 53.2431 160.918 50.1465 159.697 46.2865V46.2974Z" fill="#D9D9D9"/>
<path d="M229.186 52.6871L209.898 54.3662L209.571 50.5826L215.47 50.0702L210.018 38.8174L187.676 40.7692L184.252 52.7961L190.075 52.2836L190.402 56.0672L175.485 57.3648L175.158 53.5812L179.814 53.1777L194.436 2.25705L200.4 1.73367L223.626 49.3505L228.87 48.8925L229.197 52.6762L229.186 52.6871ZM208.306 35.1538L196.355 10.7511L188.81 36.8548L208.317 35.1538H208.306Z" fill="#D9D9D9"/>
<path d="M295.503 12.6593L288.427 11.5471L280.543 61.4101L276.291 60.7341L249.598 11.1001L243.35 50.6481L250.427 51.7712L249.838 55.5221L231.367 52.5999L231.956 48.849L239.033 49.9612L246.164 4.86309L239.087 3.7509L239.676 0L253.164 2.13714L278.144 48.6091L284.109 10.8711L277.043 9.75889L277.632 6.00799L296.103 8.9302L295.514 12.6811L295.503 12.6593Z" fill="#D9D9D9"/>
<path d="M374.479 57.0487L370.63 54.9551L374.196 48.4129L352.05 36.3642L343.534 52.022L359.519 60.7123L362.692 54.8679L366.541 56.9614L358.091 72.4884L354.242 70.3949L357.415 64.5505L341.441 55.8601L330.515 75.9449L338.028 80.0338L336.207 83.3704L316.373 72.5866L318.194 69.25L324.158 72.4993L345.977 32.3952L340.012 29.1459L341.822 25.8093L380.138 46.6464L374.479 57.0378V57.0487Z" fill="#D9D9D9"/>
<path d="M416.536 111.393C413.744 114.522 410.702 116.954 407.387 118.699C404.073 120.378 400.583 121.315 396.941 121.523C393.572 121.719 390.41 121.239 387.444 120.105C384.489 119.037 381.622 117.27 378.863 114.806C376.17 112.407 374.087 109.768 372.615 106.89C371.132 103.869 370.293 100.784 370.118 97.6215C369.9 93.8379 370.413 90.2615 371.666 86.8704C372.986 83.4793 375.068 80.1864 377.925 76.9916C380.706 73.8622 383.737 71.4088 387.019 69.6315C390.236 67.996 393.736 67.0691 397.519 66.8511C400.889 66.6548 404.051 67.1237 407.017 68.2685C409.971 69.3371 412.839 71.1035 415.598 73.5678C421.42 78.7471 424.386 84.7878 424.506 91.679C424.768 98.5593 422.107 105.134 416.536 111.393ZM410.429 105.952C415.674 100.064 418.52 94.6339 418.956 89.6727C419.392 84.7115 417.43 80.2954 413.068 76.4028C408.739 72.5428 404.116 71.1035 399.209 72.0849C394.303 73.1316 389.243 76.5772 384.02 82.4326C378.808 88.2879 375.963 93.718 375.494 98.7119C375.09 103.706 377.053 108.122 381.382 111.982C385.711 115.842 390.323 117.281 395.24 116.3C400.147 115.253 405.207 111.807 410.429 105.952Z" fill="#D9D9D9"/>
<path d="M430.722 176.118L418.63 158.814L421.737 156.633L425.379 161.845L433.666 140.539L410.648 140.768L414.584 146.394L411.477 148.575L401.391 134.149L404.509 131.968L408.02 136.995L435.127 136.766L445.311 110.662L442.04 105.996L445.158 103.815L457.251 121.119L454.132 123.3L450.534 118.153L442.989 137.333L463.793 137.137L459.857 131.511L462.975 129.33L472.974 143.636L469.856 145.816L466.421 140.91L441.517 141.117L430.547 169.281L433.818 173.948L430.7 176.129L430.722 176.118Z" fill="#D9D9D9"/>
<path d="M138.391 547.217L140.55 545.953C141.673 549.889 144.998 552.56 150.396 552.56C155.793 552.56 158.65 549.747 158.65 545.996C158.65 542.06 155.182 540.555 150.167 538.963C144.682 537.186 139.754 535.638 139.754 529.913C139.754 524.516 144.115 521.103 149.698 521.103C155.281 521.103 158.65 524.2 160.242 527.994L158.126 529.172C156.905 526.217 154.376 523.502 149.687 523.502C144.998 523.502 142.283 526.173 142.283 529.837C142.283 533.773 145.609 534.994 150.298 536.543C156.109 538.462 161.18 540.294 161.18 545.964C161.18 551.633 156.916 554.97 150.396 554.97C144.257 554.97 139.895 551.873 138.391 547.239V547.217Z" fill="#D9D9D9"/>
<path d="M186.258 523.96H175.943V554.436H173.414V523.96H163.099V521.615H186.258V523.96Z" fill="#D9D9D9"/>
<path d="M190.946 543.466V521.615H193.432V543.466C193.432 548.809 196.758 552.56 202.951 552.56C209.145 552.56 212.514 548.809 212.514 543.466V521.615H215V543.466C215 550.401 210.17 554.948 202.951 554.948C195.733 554.948 190.946 550.401 190.946 543.466Z" fill="#D9D9D9"/>
<path d="M250.492 538.026C250.492 547.076 244.07 554.436 235.02 554.436H222.688V521.615H235.02C244.07 521.615 250.492 528.975 250.492 538.026ZM248.061 538.026C248.061 530.24 242.761 523.96 235.031 523.96H225.184V552.091H235.031C242.761 552.091 248.061 545.811 248.061 538.026Z" fill="#D9D9D9"/>
<path d="M259.259 521.615V554.436H256.773V521.615H259.259Z" fill="#D9D9D9"/>
<path d="M265.551 538.026C265.551 528.648 273.009 521.103 282.473 521.103C291.938 521.103 299.396 528.648 299.396 538.026C299.396 547.403 291.938 554.948 282.473 554.948C273.009 554.948 265.551 547.403 265.551 538.026ZM296.91 538.026C296.91 529.957 290.586 523.491 282.473 523.491C274.361 523.491 268.037 529.957 268.037 538.026C268.037 546.094 274.361 552.56 282.473 552.56C290.586 552.56 296.91 546.094 296.91 538.026Z" fill="#D9D9D9"/>
<path d="M302.536 547.217L304.695 545.953C305.818 549.889 309.144 552.56 314.541 552.56C319.939 552.56 322.795 549.747 322.795 545.996C322.795 542.06 319.328 540.555 314.312 538.963C308.828 537.186 303.91 535.638 303.91 529.913C303.91 524.516 308.272 521.103 313.854 521.103C319.437 521.103 322.806 524.2 324.398 527.994L322.294 529.172C321.073 526.217 318.543 523.502 313.854 523.502C309.166 523.502 306.451 526.173 306.451 529.837C306.451 533.773 309.776 534.994 314.465 536.543C320.277 538.462 325.347 540.294 325.347 545.963C325.347 551.633 321.083 554.97 314.563 554.97C308.424 554.97 304.063 551.873 302.558 547.239L302.536 547.217Z" fill="#D9D9D9"/>
</svg>
