<svg width="206" height="300" viewBox="0 0 206 300" fill="none" xmlns="http://www.w3.org/2000/svg">
<path d="M124.8 43.2057C124.74 43.2057 124.7 43.1508 124.68 43.0503C124.68 43.0046 124.66 42.968 124.64 42.9132C124.7 43.0046 124.75 43.1051 124.8 43.1965V43.2057Z" fill="white" stroke="#231F20" stroke-miterlimit="10"/>
<path d="M87.1401 176.497C87.0401 176.598 86.9801 176.662 86.9501 176.68C85.7701 176.195 84.5501 175.766 83.3101 175.391C84.7701 175.684 86.0301 176.058 87.1401 176.497Z" fill="white" stroke="#231F20" stroke-miterlimit="10"/>
<path d="M132.86 92.0965L139.51 98.4398C139.51 98.4398 128.94 101.036 128.52 100.935C128.09 100.844 128.21 92.4804 132.86 92.0965Z" fill="#1F1F1E"/>
<path d="M124.8 43.2057C124.74 43.2057 124.7 43.1508 124.68 43.0503C124.68 43.0046 124.66 42.968 124.64 42.9132C124.7 43.0046 124.75 43.1051 124.8 43.1965V43.2057Z" fill="white" stroke="#231F20" stroke-miterlimit="10"/>
<path d="M205.01 234.455C202.73 199.475 195.14 166.607 156.2 140.896C145.4 133.767 132.39 133.401 115.74 109.189H103.11C103.11 109.189 103.75 119.133 100.29 126.774C96.83 134.416 81.09 165.191 81.24 184.22L74.23 174.596C74.23 174.596 71.19 178.947 72.61 196.971L72.69 199.421C72.69 199.421 58.01 179.733 54.24 174.477C49.27 167.558 36.26 141.892 36.42 119.846L39.26 121.281C39.26 121.281 40.87 98.5404 58.14 77.0061C62.98 84.4553 70.75 90.1222 80.01 92.6724C90.38 99.6189 104.1 102.608 126.01 101.1C126.01 101.1 124.75 95.0397 130.43 90.433C130.43 90.433 128.14 86.8318 126.72 80.4885C126.72 80.4885 125.95 77.8287 125.9 73.7248C128.12 69.3009 129.35 64.3743 129.35 59.1827C129.35 53.5249 127.88 48.1871 125.28 43.4616C126.79 43.4616 138.68 14.0942 130.2 4.95398C118.82 14.8162 108.4 25.5194 106.91 27.0641C106.81 27.1646 106.75 27.2286 106.72 27.2469C105.54 26.7625 104.32 26.3329 103.08 25.9581C99.92 25.0076 96.58 24.4226 93.12 24.2581L93.76 23.9839C93.45 17.8599 87.03 10.0999 78.94 0C65.16 3.46413 53.78 40.8475 53.78 40.8475C53.35 39.8786 30.99 62.4915 19.24 105.423C13.22 127.442 22.81 158.92 33.05 176.917C49.61 206.038 70.4 225.37 64.35 244.235C64.35 244.235 101.25 243.522 126.02 258.503C126.02 258.503 128.39 259.664 125.08 259.508C121.77 259.371 104.73 248.988 83.28 248.695C61.83 248.412 60.57 248.257 41.33 254.463C22.09 260.66 0 252.159 0 252.159C0 252.159 0.319998 276.079 22.24 289.058C44.17 302.037 73.34 299.295 73.34 299.295C73.34 299.295 86.94 299.158 104.27 295.265C121.6 291.371 149.6 295.84 149.6 295.84C149.6 295.84 165.61 297.714 176.18 292.376C186.75 287.038 207.63 274.005 205.04 234.427L205.01 234.455ZM125.26 43.4707C125.2 43.4707 125.16 43.4159 125.14 43.3153C125.14 43.2696 125.12 43.2331 125.1 43.1782C125.16 43.2696 125.21 43.3702 125.26 43.4616V43.4707ZM125.07 43.1417C125 43.0046 124.92 42.8675 124.84 42.7395C124.94 42.8949 125.02 43.0229 125.07 43.1417ZM94.31 57.5375C99.04 60.2795 102.61 67.5094 102.61 67.5094C102.61 67.5094 94.88 68.2315 88.89 64.484C82.95 60.764 82.42 55.2616 82.42 55.2616C82.42 55.2616 89.58 54.8046 94.31 57.5375ZM70.57 292.267C70.57 292.267 44.55 297.239 27.44 287.294C27.44 287.294 10.96 278.264 5.28 258.366C5.28 258.366 22.84 267.497 66.95 256.053C67.01 256.035 67.05 256.008 67.11 255.989L69.47 255.24L58.67 264.517L70.34 266.391L59.06 275.759L71.05 278.931L58.28 286.792L70.58 292.267H70.57Z" fill="#1F1F1E"/>
</svg>
