<svg width="67" height="67" viewBox="0 0 67 67" fill="none" xmlns="http://www.w3.org/2000/svg">
<path d="M66.961 50.6116C66.3636 55.151 64.1343 59.3177 60.6894 62.3336C57.2444 65.3494 52.8194 67.0082 48.2409 67C21.6414 67 3.03135e-05 45.3588 3.03135e-05 18.7595C-0.00817726 14.181 1.65056 9.75603 4.66644 6.3111C7.68231 2.86617 11.8491 0.636856 16.3885 0.0395225C17.5364 -0.10064 18.6989 0.134201 19.7023 0.708988C20.7058 1.28377 21.4965 2.16768 21.9563 3.22875L29.0316 19.0242V19.0644C29.3837 19.8766 29.5291 20.7634 29.4548 21.6455C29.3806 22.5276 29.089 23.3776 28.6062 24.1196C28.5459 24.21 28.4822 24.2938 28.4152 24.3775L21.4404 32.6454C23.9496 37.7441 29.2829 43.0305 34.4487 45.5464L42.6027 38.6084C42.6828 38.5411 42.7667 38.4785 42.854 38.4208C43.5953 37.9264 44.4482 37.6246 45.3356 37.5427C46.2229 37.4608 47.1167 37.6014 47.936 37.9518L47.9796 37.9719L63.7617 45.0439C64.8246 45.502 65.7107 46.292 66.2874 47.2956C66.8641 48.2992 67.1004 49.4625 66.961 50.6116Z" fill="#313E35"/>
</svg>
