<svg width="40" height="42" viewBox="0 0 40 42" fill="none" xmlns="http://www.w3.org/2000/svg">
<path d="M39.9767 31.7267C39.6201 34.5723 38.2891 37.1843 36.2324 39.0748C34.1758 40.9653 31.534 42.0051 28.8005 42C12.9202 42 1.80976e-05 28.4339 1.80976e-05 11.7597C-0.00488195 8.88957 0.985409 6.11572 2.78593 3.95621C4.58646 1.79671 7.07408 0.399223 9.78419 0.0247753C10.4695 -0.0630876 11.1635 0.0841259 11.7626 0.44444C12.3617 0.804754 12.8337 1.35884 13.1082 2.02399L17.3323 11.9256V11.9508C17.5425 12.4599 17.6293 13.0158 17.585 13.5688C17.5406 14.1218 17.3666 14.6546 17.0783 15.1197C17.0423 15.1764 17.0043 15.2289 16.9643 15.2814L12.8002 20.4643C14.2983 23.6605 17.4823 26.9743 20.5664 28.5515L25.4345 24.2023C25.4823 24.1601 25.5323 24.1208 25.5845 24.0847C26.0271 23.7748 26.5363 23.5855 27.066 23.5342C27.5958 23.4829 28.1294 23.571 28.6185 23.7907L28.6445 23.8033L38.0667 28.2364C38.7013 28.5237 39.2303 29.0189 39.5746 29.648C39.9188 30.2771 40.0599 31.0064 39.9767 31.7267Z" fill="white"/>
</svg>
